# xmcd
#
# Track frame offsets:
#	150
#	14486
#	24807
#	37595
#	53948
#	67329
#	81866
#	92453
#	106859
#	122010
#
# Disc length: 1779 seconds
#
# Revision: 0
# Processed by: cddbd v1.5.2PL0 Copyright (c) Steve Scherf et al.
# Submitted via: EasyCDDAExtractor 16.0.1.1
#
DISCID=7106f10a
DTITLE=Guy Clark - Old Friends
DYEAR=1988
DGENRE=Country
TTITLE0=Old Friends
TTITLE1=Hands
TTITLE2=All Through Throwin' Good Love After Bad
TTITLE3=Immigrant Eyes
TTITLE4=Heavy Metal
TTITLE5=Come From The Heart
TTITLE6=The Indian Cowboy
TTITLE7=To Live Is To Fly
TTITLE8=Watermelon Dream
TTITLE9=Doctor Good Doctor
EXTD=
EXTT0=
EXTT1=
EXTT2=
EXTT3=
EXTT4=
EXTT5=
EXTT6=
EXTT7=
EXTT8=
EXTT9=
PLAYORDER=
